<?xml version="1.0" encoding="utf-8" standalone="no"?>
<!DOCTYPE svg PUBLIC "-//W3C//DTD SVG 1.1//EN"
  "http://www.w3.org/Graphics/SVG/1.1/DTD/svg11.dtd">
<svg xmlns:xlink="http://www.w3.org/1999/xlink" width="496.451335pt" height="252pt" viewBox="0 0 496.451335 252" xmlns="http://www.w3.org/2000/svg" version="1.1">
 <metadata>
  <rdf:RDF xmlns:dc="http://purl.org/dc/elements/1.1/" xmlns:cc="http://creativecommons.org/ns#" xmlns:rdf="http://www.w3.org/1999/02/22-rdf-syntax-ns#">
   <cc:Work>
    <dc:type rdf:resource="http://purl.org/dc/dcmitype/StillImage"/>
    <dc:date>2026-09-18T15:59:52.945913</dc:date>
    <dc:format>image/svg+xml</dc:format>
    <dc:creator>
     <cc:Agent>
      <dc:title>Matplotlib v3.11.1, https://matplotlib.org/</dc:title>
     </cc:Agent>
    </dc:creator>
   </cc:Work>
  </rdf:RDF>
 </metadata>
 <defs>
  <style type="text/css">*{stroke-linejoin: round; stroke-linecap: butt}</style>
 </defs>
 <g id="figure_1">
  <g id="patch_1">
   <path d="M 0 252 
L 496.451335 252 
L 496.451335 0 
L 0 0 
L 0 252 
z
" style="fill: none"/>
  </g>
  <g id="axes_1">
   <g id="patch_2">
    <path d="M 69.320625 208.798984 
L 478.051226 208.798984 
L 478.051226 7.2 
L 69.320625 7.2 
L 69.320625 208.798984 
z
" style="fill: none"/>
   </g>
   <g id="line2d_1">
    <path d="M 77.180829 203.199013 
L 470.191022 16.533286 
" clip-path="url(#p302afb81c3)" style="fill: none; stroke-dasharray: 4.81,2.08; stroke-dashoffset: 0; stroke: #bac6da; stroke-width: 1.3"/>
   </g>
   <g id="matplotlib.axis_1">
    <g id="xtick_1">
     <g id="line2d_2">
      <path d="M 77.180829 208.798984 
L 77.180829 7.2 
" clip-path="url(#p302afb81c3)" style="fill: none; stroke: #2a3f63; stroke-opacity: 0.5; stroke-width: 0.5; stroke-linecap: square"/>
     </g>
     <g id="line2d_3">
      <defs>
       <path id="ma3ce8363bb" d="M 0 0 
L 0 3.5 
" style="stroke: #bac6da; stroke-width: 0.8"/>
      </defs>
      <g>
       <use xlink:href="#ma3ce8363bb" x="77.180829" y="208.798984" style="fill: #bac6da; stroke: #bac6da; stroke-width: 0.8"/>
      </g>
     </g>
     <g id="text_1">
      <!-- 0 % -->
      <g style="fill: #bac6da" transform="translate(65.755516 224.916172) scale(0.12 -0.12)">
       <defs>
        <path id="DejaVuSans-13" d="M 2034 4250 
Q 1547 4250 1301 3770 
Q 1056 3291 1056 2328 
Q 1056 1369 1301 889 
Q 1547 409 2034 409 
Q 2525 409 2770 889 
Q 3016 1369 3016 2328 
Q 3016 3291 2770 3770 
Q 2525 4250 2034 4250 
z
M 2034 4750 
Q 2819 4750 3233 4129 
Q 3647 3509 3647 2328 
Q 3647 1150 3233 529 
Q 2819 -91 2034 -91 
Q 1250 -91 836 529 
Q 422 1150 422 2328 
Q 422 3509 836 4129 
Q 1250 4750 2034 4750 
z
" transform="scale(0.015625)"/>
        <path id="DejaVuSans-3" transform="scale(0.015625)"/>
        <path id="DejaVuSans-8" d="M 4653 2053 
Q 4381 2053 4226 1822 
Q 4072 1591 4072 1178 
Q 4072 772 4226 539 
Q 4381 306 4653 306 
Q 4919 306 5073 539 
Q 5228 772 5228 1178 
Q 5228 1588 5073 1820 
Q 4919 2053 4653 2053 
z
M 4653 2450 
Q 5147 2450 5437 2106 
Q 5728 1763 5728 1178 
Q 5728 594 5436 251 
Q 5144 -91 4653 -91 
Q 4153 -91 3862 251 
Q 3572 594 3572 1178 
Q 3572 1766 3864 2108 
Q 4156 2450 4653 2450 
z
M 1428 4353 
Q 1159 4353 1004 4120 
Q 850 3888 850 3481 
Q 850 3069 1003 2837 
Q 1156 2606 1428 2606 
Q 1700 2606 1854 2837 
Q 2009 3069 2009 3481 
Q 2009 3884 1853 4118 
Q 1697 4353 1428 4353 
z
M 4250 4750 
L 4750 4750 
L 1831 -91 
L 1331 -91 
L 4250 4750 
z
M 1428 4750 
Q 1922 4750 2215 4408 
Q 2509 4066 2509 3481 
Q 2509 2891 2217 2550 
Q 1925 2209 1428 2209 
Q 931 2209 642 2551 
Q 353 2894 353 3481 
Q 353 4063 643 4406 
Q 934 4750 1428 4750 
z
" transform="scale(0.015625)"/>
       </defs>
       <use xlink:href="#DejaVuSans-13"/>
       <use xlink:href="#DejaVuSans-3" transform="translate(63.625 0)"/>
       <use xlink:href="#DejaVuSans-8" transform="translate(95.40625 0)"/>
      </g>
     </g>
    </g>
    <g id="xtick_2">
     <g id="line2d_4">
      <path d="M 175.433377 208.798984 
L 175.433377 7.2 
" clip-path="url(#p302afb81c3)" style="fill: none; stroke: #2a3f63; stroke-opacity: 0.5; stroke-width: 0.5; stroke-linecap: square"/>
     </g>
     <g id="line2d_5">
      <g>
       <use xlink:href="#ma3ce8363bb" x="175.433377" y="208.798984" style="fill: #bac6da; stroke: #bac6da; stroke-width: 0.8"/>
      </g>
     </g>
     <g id="text_2">
      <!-- 25 % -->
      <g style="fill: #bac6da" transform="translate(160.190565 224.916172) scale(0.12 -0.12)">
       <defs>
        <path id="DejaVuSans-15" d="M 1228 531 
L 3431 531 
L 3431 0 
L 469 0 
L 469 531 
Q 828 903 1448 1529 
Q 2069 2156 2228 2338 
Q 2531 2678 2651 2914 
Q 2772 3150 2772 3378 
Q 2772 3750 2511 3984 
Q 2250 4219 1831 4219 
Q 1534 4219 1204 4116 
Q 875 4013 500 3803 
L 500 4441 
Q 881 4594 1212 4672 
Q 1544 4750 1819 4750 
Q 2544 4750 2975 4387 
Q 3406 4025 3406 3419 
Q 3406 3131 3298 2873 
Q 3191 2616 2906 2266 
Q 2828 2175 2409 1742 
Q 1991 1309 1228 531 
z
" transform="scale(0.015625)"/>
        <path id="DejaVuSans-18" d="M 691 4666 
L 3169 4666 
L 3169 4134 
L 1269 4134 
L 1269 2991 
Q 1406 3038 1543 3061 
Q 1681 3084 1819 3084 
Q 2600 3084 3056 2656 
Q 3513 2228 3513 1497 
Q 3513 744 3044 326 
Q 2575 -91 1722 -91 
Q 1428 -91 1123 -41 
Q 819 9 494 109 
L 494 744 
Q 775 591 1075 516 
Q 1375 441 1709 441 
Q 2250 441 2565 725 
Q 2881 1009 2881 1497 
Q 2881 1984 2565 2268 
Q 2250 2553 1709 2553 
Q 1456 2553 1204 2497 
Q 953 2441 691 2322 
L 691 4666 
z
" transform="scale(0.015625)"/>
       </defs>
       <use xlink:href="#DejaVuSans-15"/>
       <use xlink:href="#DejaVuSans-18" transform="translate(63.625 0)"/>
       <use xlink:href="#DejaVuSans-3" transform="translate(127.25 0)"/>
       <use xlink:href="#DejaVuSans-8" transform="translate(159.03125 0)"/>
      </g>
     </g>
    </g>
    <g id="xtick_3">
     <g id="line2d_6">
      <path d="M 273.685925 208.798984 
L 273.685925 7.2 
" clip-path="url(#p302afb81c3)" style="fill: none; stroke: #2a3f63; stroke-opacity: 0.5; stroke-width: 0.5; stroke-linecap: square"/>
     </g>
     <g id="line2d_7">
      <g>
       <use xlink:href="#ma3ce8363bb" x="273.685925" y="208.798984" style="fill: #bac6da; stroke: #bac6da; stroke-width: 0.8"/>
      </g>
     </g>
     <g id="text_3">
      <!-- 50 % -->
      <g style="fill: #bac6da" transform="translate(258.443113 224.916172) scale(0.12 -0.12)">
       <use xlink:href="#DejaVuSans-18"/>
       <use xlink:href="#DejaVuSans-13" transform="translate(63.625 0)"/>
       <use xlink:href="#DejaVuSans-3" transform="translate(127.25 0)"/>
       <use xlink:href="#DejaVuSans-8" transform="translate(159.03125 0)"/>
      </g>
     </g>
    </g>
    <g id="xtick_4">
     <g id="line2d_8">
      <path d="M 371.938474 208.798984 
L 371.938474 7.2 
" clip-path="url(#p302afb81c3)" style="fill: none; stroke: #2a3f63; stroke-opacity: 0.5; stroke-width: 0.5; stroke-linecap: square"/>
     </g>
     <g id="line2d_9">
      <g>
       <use xlink:href="#ma3ce8363bb" x="371.938474" y="208.798984" style="fill: #bac6da; stroke: #bac6da; stroke-width: 0.8"/>
      </g>
     </g>
     <g id="text_4">
      <!-- 75 % -->
      <g style="fill: #bac6da" transform="translate(356.695661 224.916172) scale(0.12 -0.12)">
       <defs>
        <path id="DejaVuSans-1a" d="M 525 4666 
L 3525 4666 
L 3525 4397 
L 1831 0 
L 1172 0 
L 2766 4134 
L 525 4134 
L 525 4666 
z
" transform="scale(0.015625)"/>
       </defs>
       <use xlink:href="#DejaVuSans-1a"/>
       <use xlink:href="#DejaVuSans-18" transform="translate(63.625 0)"/>
       <use xlink:href="#DejaVuSans-3" transform="translate(127.25 0)"/>
       <use xlink:href="#DejaVuSans-8" transform="translate(159.03125 0)"/>
      </g>
     </g>
    </g>
    <g id="xtick_5">
     <g id="line2d_10">
      <path d="M 470.191022 208.798984 
L 470.191022 7.2 
" clip-path="url(#p302afb81c3)" style="fill: none; stroke: #2a3f63; stroke-opacity: 0.5; stroke-width: 0.5; stroke-linecap: square"/>
     </g>
     <g id="line2d_11">
      <g>
       <use xlink:href="#ma3ce8363bb" x="470.191022" y="208.798984" style="fill: #bac6da; stroke: #bac6da; stroke-width: 0.8"/>
      </g>
     </g>
     <g id="text_5">
      <!-- 100 % -->
      <g style="fill: #bac6da" transform="translate(451.13071 224.916172) scale(0.12 -0.12)">
       <defs>
        <path id="DejaVuSans-14" d="M 794 531 
L 1825 531 
L 1825 4091 
L 703 3866 
L 703 4441 
L 1819 4666 
L 2450 4666 
L 2450 531 
L 3481 531 
L 3481 0 
L 794 0 
L 794 531 
z
" transform="scale(0.015625)"/>
       </defs>
       <use xlink:href="#DejaVuSans-14"/>
       <use xlink:href="#DejaVuSans-13" transform="translate(63.625 0)"/>
       <use xlink:href="#DejaVuSans-13" transform="translate(127.25 0)"/>
       <use xlink:href="#DejaVuSans-3" transform="translate(190.875 0)"/>
       <use xlink:href="#DejaVuSans-8" transform="translate(222.65625 0)"/>
      </g>
     </g>
    </g>
    <g id="text_6">
     <!-- o que o Polymarket disse -->
     <g style="fill: #bac6da" transform="translate(192.134285 241.676953) scale(0.13 -0.13)">
      <defs>
       <path id="DejaVuSans-52" d="M 1959 3097 
Q 1497 3097 1228 2736 
Q 959 2375 959 1747 
Q 959 1119 1226 758 
Q 1494 397 1959 397 
Q 2419 397 2687 759 
Q 2956 1122 2956 1747 
Q 2956 2369 2687 2733 
Q 2419 3097 1959 3097 
z
M 1959 3584 
Q 2709 3584 3137 3096 
Q 3566 2609 3566 1747 
Q 3566 888 3137 398 
Q 2709 -91 1959 -91 
Q 1206 -91 779 398 
Q 353 888 353 1747 
Q 353 2609 779 3096 
Q 1206 3584 1959 3584 
z
" transform="scale(0.015625)"/>
       <path id="DejaVuSans-54" d="M 947 1747 
Q 947 1113 1208 752 
Q 1469 391 1925 391 
Q 2381 391 2643 752 
Q 2906 1113 2906 1747 
Q 2906 2381 2643 2742 
Q 2381 3103 1925 3103 
Q 1469 3103 1208 2742 
Q 947 2381 947 1747 
z
M 2906 525 
Q 2725 213 2448 61 
Q 2172 -91 1784 -91 
Q 1150 -91 751 415 
Q 353 922 353 1747 
Q 353 2572 751 3078 
Q 1150 3584 1784 3584 
Q 2172 3584 2448 3432 
Q 2725 3281 2906 2969 
L 2906 3500 
L 3481 3500 
L 3481 -1331 
L 2906 -1331 
L 2906 525 
z
" transform="scale(0.015625)"/>
       <path id="DejaVuSans-58" d="M 544 1381 
L 544 3500 
L 1119 3500 
L 1119 1403 
Q 1119 906 1312 657 
Q 1506 409 1894 409 
Q 2359 409 2629 706 
Q 2900 1003 2900 1516 
L 2900 3500 
L 3475 3500 
L 3475 0 
L 2900 0 
L 2900 538 
Q 2691 219 2414 64 
Q 2138 -91 1772 -91 
Q 1169 -91 856 284 
Q 544 659 544 1381 
z
M 1991 3584 
L 1991 3584 
z
" transform="scale(0.015625)"/>
       <path id="DejaVuSans-48" d="M 3597 1894 
L 3597 1613 
L 953 1613 
Q 991 1019 1311 708 
Q 1631 397 2203 397 
Q 2534 397 2845 478 
Q 3156 559 3463 722 
L 3463 178 
Q 3153 47 2828 -22 
Q 2503 -91 2169 -91 
Q 1331 -91 842 396 
Q 353 884 353 1716 
Q 353 2575 817 3079 
Q 1281 3584 2069 3584 
Q 2775 3584 3186 3129 
Q 3597 2675 3597 1894 
z
M 3022 2063 
Q 3016 2534 2758 2815 
Q 2500 3097 2075 3097 
Q 1594 3097 1305 2825 
Q 1016 2553 972 2059 
L 3022 2063 
z
" transform="scale(0.015625)"/>
       <path id="DejaVuSans-33" d="M 1259 4147 
L 1259 2394 
L 2053 2394 
Q 2494 2394 2734 2622 
Q 2975 2850 2975 3272 
Q 2975 3691 2734 3919 
Q 2494 4147 2053 4147 
L 1259 4147 
z
M 628 4666 
L 2053 4666 
Q 2838 4666 3239 4311 
Q 3641 3956 3641 3272 
Q 3641 2581 3239 2228 
Q 2838 1875 2053 1875 
L 1259 1875 
L 1259 0 
L 628 0 
L 628 4666 
z
" transform="scale(0.015625)"/>
       <path id="DejaVuSans-4f" d="M 603 4863 
L 1178 4863 
L 1178 0 
L 603 0 
L 603 4863 
z
" transform="scale(0.015625)"/>
       <path id="DejaVuSans-5c" d="M 2059 -325 
Q 1816 -950 1584 -1140 
Q 1353 -1331 966 -1331 
L 506 -1331 
L 506 -850 
L 844 -850 
Q 1081 -850 1212 -737 
Q 1344 -625 1503 -206 
L 1606 56 
L 191 3500 
L 800 3500 
L 1894 763 
L 2988 3500 
L 3597 3500 
L 2059 -325 
z
" transform="scale(0.015625)"/>
       <path id="DejaVuSans-50" d="M 3328 2828 
Q 3544 3216 3844 3400 
Q 4144 3584 4550 3584 
Q 5097 3584 5394 3201 
Q 5691 2819 5691 2113 
L 5691 0 
L 5113 0 
L 5113 2094 
Q 5113 2597 4934 2840 
Q 4756 3084 4391 3084 
Q 3944 3084 3684 2787 
Q 3425 2491 3425 1978 
L 3425 0 
L 2847 0 
L 2847 2094 
Q 2847 2600 2669 2842 
Q 2491 3084 2119 3084 
Q 1678 3084 1418 2786 
Q 1159 2488 1159 1978 
L 1159 0 
L 581 0 
L 581 3500 
L 1159 3500 
L 1159 2956 
Q 1356 3278 1631 3431 
Q 1906 3584 2284 3584 
Q 2666 3584 2933 3390 
Q 3200 3197 3328 2828 
z
" transform="scale(0.015625)"/>
       <path id="DejaVuSans-44" d="M 2194 1759 
Q 1497 1759 1228 1600 
Q 959 1441 959 1056 
Q 959 750 1161 570 
Q 1363 391 1709 391 
Q 2188 391 2477 730 
Q 2766 1069 2766 1631 
L 2766 1759 
L 2194 1759 
z
M 3341 1997 
L 3341 0 
L 2766 0 
L 2766 531 
Q 2569 213 2275 61 
Q 1981 -91 1556 -91 
Q 1019 -91 701 211 
Q 384 513 384 1019 
Q 384 1609 779 1909 
Q 1175 2209 1959 2209 
L 2766 2209 
L 2766 2266 
Q 2766 2663 2505 2880 
Q 2244 3097 1772 3097 
Q 1472 3097 1187 3025 
Q 903 2953 641 2809 
L 641 3341 
Q 956 3463 1253 3523 
Q 1550 3584 1831 3584 
Q 2591 3584 2966 3190 
Q 3341 2797 3341 1997 
z
" transform="scale(0.015625)"/>
       <path id="DejaVuSans-55" d="M 2631 2963 
Q 2534 3019 2420 3045 
Q 2306 3072 2169 3072 
Q 1681 3072 1420 2755 
Q 1159 2438 1159 1844 
L 1159 0 
L 581 0 
L 581 3500 
L 1159 3500 
L 1159 2956 
Q 1341 3275 1631 3429 
Q 1922 3584 2338 3584 
Q 2397 3584 2469 3576 
Q 2541 3569 2628 3553 
L 2631 2963 
z
" transform="scale(0.015625)"/>
       <path id="DejaVuSans-4e" d="M 581 4863 
L 1159 4863 
L 1159 1991 
L 2875 3500 
L 3609 3500 
L 1753 1863 
L 3688 0 
L 2938 0 
L 1159 1709 
L 1159 0 
L 581 0 
L 581 4863 
z
" transform="scale(0.015625)"/>
       <path id="DejaVuSans-57" d="M 1172 4494 
L 1172 3500 
L 2356 3500 
L 2356 3053 
L 1172 3053 
L 1172 1153 
Q 1172 725 1289 603 
Q 1406 481 1766 481 
L 2356 481 
L 2356 0 
L 1766 0 
Q 1100 0 847 248 
Q 594 497 594 1153 
L 594 3053 
L 172 3053 
L 172 3500 
L 594 3500 
L 594 4494 
L 1172 4494 
z
" transform="scale(0.015625)"/>
       <path id="DejaVuSans-47" d="M 2906 2969 
L 2906 4863 
L 3481 4863 
L 3481 0 
L 2906 0 
L 2906 525 
Q 2725 213 2448 61 
Q 2172 -91 1784 -91 
Q 1150 -91 751 415 
Q 353 922 353 1747 
Q 353 2572 751 3078 
Q 1150 3584 1784 3584 
Q 2172 3584 2448 3432 
Q 2725 3281 2906 2969 
z
M 947 1747 
Q 947 1113 1208 752 
Q 1469 391 1925 391 
Q 2381 391 2643 752 
Q 2906 1113 2906 1747 
Q 2906 2381 2643 2742 
Q 2381 3103 1925 3103 
Q 1469 3103 1208 2742 
Q 947 2381 947 1747 
z
" transform="scale(0.015625)"/>
       <path id="DejaVuSans-4c" d="M 603 3500 
L 1178 3500 
L 1178 0 
L 603 0 
L 603 3500 
z
M 603 4863 
L 1178 4863 
L 1178 4134 
L 603 4134 
L 603 4863 
z
" transform="scale(0.015625)"/>
       <path id="DejaVuSans-56" d="M 2834 3397 
L 2834 2853 
Q 2591 2978 2328 3040 
Q 2066 3103 1784 3103 
Q 1356 3103 1142 2972 
Q 928 2841 928 2578 
Q 928 2378 1081 2264 
Q 1234 2150 1697 2047 
L 1894 2003 
Q 2506 1872 2764 1633 
Q 3022 1394 3022 966 
Q 3022 478 2636 193 
Q 2250 -91 1575 -91 
Q 1294 -91 989 -36 
Q 684 19 347 128 
L 347 722 
Q 666 556 975 473 
Q 1284 391 1588 391 
Q 1994 391 2212 530 
Q 2431 669 2431 922 
Q 2431 1156 2273 1281 
Q 2116 1406 1581 1522 
L 1381 1569 
Q 847 1681 609 1914 
Q 372 2147 372 2553 
Q 372 3047 722 3315 
Q 1072 3584 1716 3584 
Q 2034 3584 2315 3537 
Q 2597 3491 2834 3397 
z
" transform="scale(0.015625)"/>
      </defs>
      <use xlink:href="#DejaVuSans-52"/>
      <use xlink:href="#DejaVuSans-3" transform="translate(61.1875 0)"/>
      <use xlink:href="#DejaVuSans-54" transform="translate(92.96875 0)"/>
      <use xlink:href="#DejaVuSans-58" transform="translate(156.453125 0)"/>
      <use xlink:href="#DejaVuSans-48" transform="translate(219.828125 0)"/>
      <use xlink:href="#DejaVuSans-3" transform="translate(281.359375 0)"/>
      <use xlink:href="#DejaVuSans-52" transform="translate(313.140625 0)"/>
      <use xlink:href="#DejaVuSans-3" transform="translate(374.328125 0)"/>
      <use xlink:href="#DejaVuSans-33" transform="translate(406.109375 0)"/>
      <use xlink:href="#DejaVuSans-52" transform="translate(462.84375 0)"/>
      <use xlink:href="#DejaVuSans-4f" transform="translate(524.03125 0)"/>
      <use xlink:href="#DejaVuSans-5c" transform="translate(551.8125 0)"/>
      <use xlink:href="#DejaVuSans-50" transform="translate(611 0)"/>
      <use xlink:href="#DejaVuSans-44" transform="translate(708.40625 0)"/>
      <use xlink:href="#DejaVuSans-55" transform="translate(769.6875 0)"/>
      <use xlink:href="#DejaVuSans-4e" transform="translate(810.796875 0)"/>
      <use xlink:href="#DejaVuSans-48" transform="translate(865.140625 0)"/>
      <use xlink:href="#DejaVuSans-57" transform="translate(926.671875 0)"/>
      <use xlink:href="#DejaVuSans-3" transform="translate(965.875 0)"/>
      <use xlink:href="#DejaVuSans-47" transform="translate(997.65625 0)"/>
      <use xlink:href="#DejaVuSans-4c" transform="translate(1061.140625 0)"/>
      <use xlink:href="#DejaVuSans-56" transform="translate(1088.921875 0)"/>
      <use xlink:href="#DejaVuSans-56" transform="translate(1141.015625 0)"/>
      <use xlink:href="#DejaVuSans-48" transform="translate(1193.109375 0)"/>
     </g>
    </g>
   </g>
   <g id="matplotlib.axis_2">
    <g id="ytick_1">
     <g id="line2d_12">
      <path d="M 69.320625 203.199013 
L 478.051226 203.199013 
" clip-path="url(#p302afb81c3)" style="fill: none; stroke: #2a3f63; stroke-opacity: 0.5; stroke-width: 0.5; stroke-linecap: square"/>
     </g>
     <g id="line2d_13">
      <defs>
       <path id="mf7ab4fb698" d="M 0 0 
L -3.5 0 
" style="stroke: #bac6da; stroke-width: 0.8"/>
      </defs>
      <g>
       <use xlink:href="#mf7ab4fb698" x="69.320625" y="203.199013" style="fill: #bac6da; stroke: #bac6da; stroke-width: 0.8"/>
      </g>
     </g>
     <g id="text_7">
      <!-- 0 % -->
      <g style="fill: #bac6da" transform="translate(39.47 207.757606) scale(0.12 -0.12)">
       <use xlink:href="#DejaVuSans-13"/>
       <use xlink:href="#DejaVuSans-3" transform="translate(63.625 0)"/>
       <use xlink:href="#DejaVuSans-8" transform="translate(95.40625 0)"/>
      </g>
     </g>
    </g>
    <g id="ytick_2">
     <g id="line2d_14">
      <path d="M 69.320625 156.532581 
L 478.051226 156.532581 
" clip-path="url(#p302afb81c3)" style="fill: none; stroke: #2a3f63; stroke-opacity: 0.5; stroke-width: 0.5; stroke-linecap: square"/>
     </g>
     <g id="line2d_15">
      <g>
       <use xlink:href="#mf7ab4fb698" x="69.320625" y="156.532581" style="fill: #bac6da; stroke: #bac6da; stroke-width: 0.8"/>
      </g>
     </g>
     <g id="text_8">
      <!-- 25 % -->
      <g style="fill: #bac6da" transform="translate(31.835 161.091175) scale(0.12 -0.12)">
       <use xlink:href="#DejaVuSans-15"/>
       <use xlink:href="#DejaVuSans-18" transform="translate(63.625 0)"/>
       <use xlink:href="#DejaVuSans-3" transform="translate(127.25 0)"/>
       <use xlink:href="#DejaVuSans-8" transform="translate(159.03125 0)"/>
      </g>
     </g>
    </g>
    <g id="ytick_3">
     <g id="line2d_16">
      <path d="M 69.320625 109.866149 
L 478.051226 109.866149 
" clip-path="url(#p302afb81c3)" style="fill: none; stroke: #2a3f63; stroke-opacity: 0.5; stroke-width: 0.5; stroke-linecap: square"/>
     </g>
     <g id="line2d_17">
      <g>
       <use xlink:href="#mf7ab4fb698" x="69.320625" y="109.866149" style="fill: #bac6da; stroke: #bac6da; stroke-width: 0.8"/>
      </g>
     </g>
     <g id="text_9">
      <!-- 50 % -->
      <g style="fill: #bac6da" transform="translate(31.835 114.424743) scale(0.12 -0.12)">
       <use xlink:href="#DejaVuSans-18"/>
       <use xlink:href="#DejaVuSans-13" transform="translate(63.625 0)"/>
       <use xlink:href="#DejaVuSans-3" transform="translate(127.25 0)"/>
       <use xlink:href="#DejaVuSans-8" transform="translate(159.03125 0)"/>
      </g>
     </g>
    </g>
    <g id="ytick_4">
     <g id="line2d_18">
      <path d="M 69.320625 63.199718 
L 478.051226 63.199718 
" clip-path="url(#p302afb81c3)" style="fill: none; stroke: #2a3f63; stroke-opacity: 0.5; stroke-width: 0.5; stroke-linecap: square"/>
     </g>
     <g id="line2d_19">
      <g>
       <use xlink:href="#mf7ab4fb698" x="69.320625" y="63.199718" style="fill: #bac6da; stroke: #bac6da; stroke-width: 0.8"/>
      </g>
     </g>
     <g id="text_10">
      <!-- 75 % -->
      <g style="fill: #bac6da" transform="translate(31.835 67.758312) scale(0.12 -0.12)">
       <use xlink:href="#DejaVuSans-1a"/>
       <use xlink:href="#DejaVuSans-18" transform="translate(63.625 0)"/>
       <use xlink:href="#DejaVuSans-3" transform="translate(127.25 0)"/>
       <use xlink:href="#DejaVuSans-8" transform="translate(159.03125 0)"/>
      </g>
     </g>
    </g>
    <g id="ytick_5">
     <g id="line2d_20">
      <path d="M 69.320625 16.533286 
L 478.051226 16.533286 
" clip-path="url(#p302afb81c3)" style="fill: none; stroke: #2a3f63; stroke-opacity: 0.5; stroke-width: 0.5; stroke-linecap: square"/>
     </g>
     <g id="line2d_21">
      <g>
       <use xlink:href="#mf7ab4fb698" x="69.320625" y="16.533286" style="fill: #bac6da; stroke: #bac6da; stroke-width: 0.8"/>
      </g>
     </g>
     <g id="text_11">
      <!-- 100 % -->
      <g style="fill: #bac6da" transform="translate(24.2 21.09188) scale(0.12 -0.12)">
       <use xlink:href="#DejaVuSans-14"/>
       <use xlink:href="#DejaVuSans-13" transform="translate(63.625 0)"/>
       <use xlink:href="#DejaVuSans-13" transform="translate(127.25 0)"/>
       <use xlink:href="#DejaVuSans-3" transform="translate(190.875 0)"/>
       <use xlink:href="#DejaVuSans-8" transform="translate(222.65625 0)"/>
      </g>
     </g>
    </g>
    <g id="text_12">
     <!-- quantas vezes aconteceu -->
     <g style="fill: #bac6da" transform="translate(17.076953 190.93543) rotate(-90) scale(0.13 -0.13)">
      <defs>
       <path id="DejaVuSans-51" d="M 3513 2113 
L 3513 0 
L 2938 0 
L 2938 2094 
Q 2938 2591 2744 2837 
Q 2550 3084 2163 3084 
Q 1697 3084 1428 2787 
Q 1159 2491 1159 1978 
L 1159 0 
L 581 0 
L 581 3500 
L 1159 3500 
L 1159 2956 
Q 1366 3272 1645 3428 
Q 1925 3584 2291 3584 
Q 2894 3584 3203 3211 
Q 3513 2838 3513 2113 
z
" transform="scale(0.015625)"/>
       <path id="DejaVuSans-59" d="M 191 3500 
L 800 3500 
L 1894 563 
L 2988 3500 
L 3597 3500 
L 2284 0 
L 1503 0 
L 191 3500 
z
" transform="scale(0.015625)"/>
       <path id="DejaVuSans-5d" d="M 353 3500 
L 3084 3500 
L 3084 2975 
L 922 459 
L 3084 459 
L 3084 0 
L 275 0 
L 275 525 
L 2438 3041 
L 353 3041 
L 353 3500 
z
" transform="scale(0.015625)"/>
       <path id="DejaVuSans-46" d="M 3122 3366 
L 3122 2828 
Q 2878 2963 2633 3030 
Q 2388 3097 2138 3097 
Q 1578 3097 1268 2742 
Q 959 2388 959 1747 
Q 959 1106 1268 751 
Q 1578 397 2138 397 
Q 2388 397 2633 464 
Q 2878 531 3122 666 
L 3122 134 
Q 2881 22 2623 -34 
Q 2366 -91 2075 -91 
Q 1284 -91 818 406 
Q 353 903 353 1747 
Q 353 2603 823 3093 
Q 1294 3584 2113 3584 
Q 2378 3584 2631 3529 
Q 2884 3475 3122 3366 
z
" transform="scale(0.015625)"/>
      </defs>
      <use xlink:href="#DejaVuSans-54"/>
      <use xlink:href="#DejaVuSans-58" transform="translate(63.484375 0)"/>
      <use xlink:href="#DejaVuSans-44" transform="translate(126.859375 0)"/>
      <use xlink:href="#DejaVuSans-51" transform="translate(188.140625 0)"/>
      <use xlink:href="#DejaVuSans-57" transform="translate(251.515625 0)"/>
      <use xlink:href="#DejaVuSans-44" transform="translate(290.71875 0)"/>
      <use xlink:href="#DejaVuSans-56" transform="translate(352 0)"/>
      <use xlink:href="#DejaVuSans-3" transform="translate(404.09375 0)"/>
      <use xlink:href="#DejaVuSans-59" transform="translate(435.875 0)"/>
      <use xlink:href="#DejaVuSans-48" transform="translate(495.0625 0)"/>
      <use xlink:href="#DejaVuSans-5d" transform="translate(556.59375 0)"/>
      <use xlink:href="#DejaVuSans-48" transform="translate(609.078125 0)"/>
      <use xlink:href="#DejaVuSans-56" transform="translate(670.609375 0)"/>
      <use xlink:href="#DejaVuSans-3" transform="translate(722.703125 0)"/>
      <use xlink:href="#DejaVuSans-44" transform="translate(754.484375 0)"/>
      <use xlink:href="#DejaVuSans-46" transform="translate(815.765625 0)"/>
      <use xlink:href="#DejaVuSans-52" transform="translate(870.75 0)"/>
      <use xlink:href="#DejaVuSans-51" transform="translate(931.9375 0)"/>
      <use xlink:href="#DejaVuSans-57" transform="translate(995.3125 0)"/>
      <use xlink:href="#DejaVuSans-48" transform="translate(1034.515625 0)"/>
      <use xlink:href="#DejaVuSans-46" transform="translate(1096.046875 0)"/>
      <use xlink:href="#DejaVuSans-48" transform="translate(1151.03125 0)"/>
      <use xlink:href="#DejaVuSans-58" transform="translate(1212.5625 0)"/>
     </g>
    </g>
   </g>
   <g id="line2d_22">
    <path d="M 84.495017 203.199013 
L 133.066878 184.53244 
L 174.257466 146.903 
L 215.577467 124.919837 
L 257.140898 133.199365 
L 288.329827 65.228693 
L 333.198898 43.199819 
L 368.264683 65.228693 
L 411.781576 16.533286 
L 456.096765 16.533286 
" clip-path="url(#p302afb81c3)" style="fill: none; stroke: #ffb531; stroke-width: 2.6; stroke-linecap: square"/>
   </g>
   <g id="line2d_23">
    <path d="M 85.548203 201.421244 
L 194.341534 161.71774 
L 268.429414 94.310672 
L 328.707353 109.866149 
L 459.950923 16.533286 
" clip-path="url(#p302afb81c3)" style="fill: none; stroke: #b388ff; stroke-width: 2; stroke-linecap: square"/>
   </g>
   <g id="patch_3">
    <path d="M 69.320625 208.798984 
L 69.320625 7.2 
" style="fill: none; stroke: #2a3f63; stroke-width: 0.8; stroke-linejoin: miter; stroke-linecap: square"/>
   </g>
   <g id="patch_4">
    <path d="M 69.320625 208.798984 
L 478.051226 208.798984 
" style="fill: none; stroke: #2a3f63; stroke-width: 0.8; stroke-linejoin: miter; stroke-linecap: square"/>
   </g>
   <g id="PathCollection_1">
    <path d="M 84.495017 210.27008 
C 86.370286 210.27008 88.169001 209.525028 89.495017 208.199013 
C 90.821032 206.872997 91.566085 205.074282 91.566085 203.199013 
C 91.566085 201.323743 90.821032 199.525028 89.495017 198.199013 
C 88.169001 196.872997 86.370286 196.127945 84.495017 196.127945 
C 82.619748 196.127945 80.821032 196.872997 79.495017 198.199013 
C 78.169001 199.525028 77.423949 201.323743 77.423949 203.199013 
C 77.423949 205.074282 78.169001 206.872997 79.495017 208.199013 
C 80.821032 209.525028 82.619748 210.27008 84.495017 210.27008 
z
" clip-path="url(#p302afb81c3)" style="fill: #ffb531; stroke: #0a1325; stroke-width: 0.8"/>
    <path d="M 133.066878 189.180463 
C 134.299549 189.180463 135.481898 188.690718 136.353527 187.819089 
C 137.225157 186.947459 137.714902 185.76511 137.714902 184.53244 
C 137.714902 183.29977 137.225157 182.117421 136.353527 181.245791 
C 135.481898 180.374162 134.299549 179.884417 133.066878 179.884417 
C 131.834208 179.884417 130.651859 180.374162 129.78023 181.245791 
C 128.9086 182.117421 128.418855 183.29977 128.418855 184.53244 
C 128.418855 185.76511 128.9086 186.947459 129.78023 187.819089 
C 130.651859 188.690718 131.834208 189.180463 133.066878 189.180463 
z
" clip-path="url(#p302afb81c3)" style="fill: #ffb531; stroke: #0a1325; stroke-width: 0.8"/>
    <path d="M 174.257466 151.226748 
C 175.404137 151.226748 176.503998 150.771171 177.314817 149.960352 
C 178.125637 149.149532 178.581214 148.049671 178.581214 146.903 
C 178.581214 145.756328 178.125637 144.656467 177.314817 143.845648 
C 176.503998 143.034829 175.404137 142.579252 174.257466 142.579252 
C 173.110794 142.579252 172.010933 143.034829 171.200114 143.845648 
C 170.389295 144.656467 169.933718 145.756328 169.933718 146.903 
C 169.933718 148.049671 170.389295 149.149532 171.200114 149.960352 
C 172.010933 150.771171 173.110794 151.226748 174.257466 151.226748 
z
" clip-path="url(#p302afb81c3)" style="fill: #ffb531; stroke: #0a1325; stroke-width: 0.8"/>
    <path d="M 215.577467 129.233257 
C 216.721399 129.233257 217.818633 128.778768 218.627516 127.969886 
C 219.436398 127.161003 219.890887 126.06377 219.890887 124.919837 
C 219.890887 123.775905 219.436398 122.678671 218.627516 121.869788 
C 217.818633 121.060906 216.721399 120.606417 215.577467 120.606417 
C 214.433534 120.606417 213.3363 121.060906 212.527418 121.869788 
C 211.718536 122.678671 211.264046 123.775905 211.264046 124.919837 
C 211.264046 126.06377 211.718536 127.161003 212.527418 127.969886 
C 213.3363 128.778768 214.433534 129.233257 215.577467 129.233257 
z
" clip-path="url(#p302afb81c3)" style="fill: #ffb531; stroke: #0a1325; stroke-width: 0.8"/>
    <path d="M 257.140898 137.448431 
C 258.267763 137.448431 259.348627 137.000722 260.145441 136.203908 
C 260.942255 135.407094 261.389964 134.326231 261.389964 133.199365 
C 261.389964 132.0725 260.942255 130.991636 260.145441 130.194822 
C 259.348627 129.398008 258.267763 128.9503 257.140898 128.9503 
C 256.014033 128.9503 254.933169 129.398008 254.136355 130.194822 
C 253.339541 130.991636 252.891833 132.0725 252.891833 133.199365 
C 252.891833 134.326231 253.339541 135.407094 254.136355 136.203908 
C 254.933169 137.000722 256.014033 137.448431 257.140898 137.448431 
z
" clip-path="url(#p302afb81c3)" style="fill: #ffb531; stroke: #0a1325; stroke-width: 0.8"/>
    <path d="M 288.329827 69.005477 
C 289.331442 69.005477 290.292168 68.607532 291.000417 67.899283 
C 291.708665 67.191034 292.106611 66.230308 292.106611 65.228693 
C 292.106611 64.227078 291.708665 63.266352 291.000417 62.558103 
C 290.292168 61.849855 289.331442 61.451909 288.329827 61.451909 
C 287.328212 61.451909 286.367486 61.849855 285.659237 62.558103 
C 284.950989 63.266352 284.553043 64.227078 284.553043 65.228693 
C 284.553043 66.230308 284.950989 67.191034 285.659237 67.899283 
C 286.367486 68.607532 287.328212 69.005477 288.329827 69.005477 
z
" clip-path="url(#p302afb81c3)" style="fill: #ffb531; stroke: #0a1325; stroke-width: 0.8"/>
    <path d="M 333.198898 46.774351 
C 334.146875 46.774351 335.056152 46.397715 335.726473 45.727394 
C 336.396794 45.057073 336.77343 44.147796 336.77343 43.199819 
C 336.77343 42.251842 336.396794 41.342564 335.726473 40.672243 
C 335.056152 40.001922 334.146875 39.625287 333.198898 39.625287 
C 332.250921 39.625287 331.341643 40.001922 330.671322 40.672243 
C 330.001001 41.342564 329.624366 42.251842 329.624366 43.199819 
C 329.624366 44.147796 330.001001 45.057073 330.671322 45.727394 
C 331.341643 46.397715 332.250921 46.774351 333.198898 46.774351 
z
" clip-path="url(#p302afb81c3)" style="fill: #ffb531; stroke: #0a1325; stroke-width: 0.8"/>
    <path d="M 368.264683 69.005477 
C 369.266298 69.005477 370.227024 68.607532 370.935273 67.899283 
C 371.643521 67.191034 372.041467 66.230308 372.041467 65.228693 
C 372.041467 64.227078 371.643521 63.266352 370.935273 62.558103 
C 370.227024 61.849855 369.266298 61.451909 368.264683 61.451909 
C 367.263068 61.451909 366.302342 61.849855 365.594093 62.558103 
C 364.885845 63.266352 364.487899 64.227078 364.487899 65.228693 
C 364.487899 66.230308 364.885845 67.191034 365.594093 67.899283 
C 366.302342 68.607532 367.263068 69.005477 368.264683 69.005477 
z
" clip-path="url(#p302afb81c3)" style="fill: #ffb531; stroke: #0a1325; stroke-width: 0.8"/>
    <path d="M 411.781576 20.418554 
C 412.811961 20.418554 413.800283 20.009177 414.528875 19.280585 
C 415.257467 18.551993 415.666843 17.563671 415.666843 16.533286 
C 415.666843 15.502901 415.257467 14.51458 414.528875 13.785988 
C 413.800283 13.057395 412.811961 12.648019 411.781576 12.648019 
C 410.751191 12.648019 409.76287 13.057395 409.034277 13.785988 
C 408.305685 14.51458 407.896309 15.502901 407.896309 16.533286 
C 407.896309 17.563671 408.305685 18.551993 409.034277 19.280585 
C 409.76287 20.009177 410.751191 20.418554 411.781576 20.418554 
z
" clip-path="url(#p302afb81c3)" style="fill: #ffb531; stroke: #0a1325; stroke-width: 0.8"/>
    <path d="M 456.096765 21.439261 
C 457.397845 21.439261 458.645811 20.922337 459.565813 20.002334 
C 460.485816 19.082332 461.00274 17.834366 461.00274 16.533286 
C 461.00274 15.232207 460.485816 13.98424 459.565813 13.064238 
C 458.645811 12.144236 457.397845 11.627311 456.096765 11.627311 
C 454.795685 11.627311 453.547719 12.144236 452.627717 13.064238 
C 451.707715 13.98424 451.19079 15.232207 451.19079 16.533286 
C 451.19079 17.834366 451.707715 19.082332 452.627717 20.002334 
C 453.547719 20.922337 454.795685 21.439261 456.096765 21.439261 
z
" clip-path="url(#p302afb81c3)" style="fill: #ffb531; stroke: #0a1325; stroke-width: 0.8"/>
   </g>
   <g id="PathCollection_2">
    <path d="M 85.548203 208.492312 
C 87.423472 208.492312 89.222188 207.747259 90.548203 206.421244 
C 91.874219 205.095228 92.619271 203.296513 92.619271 201.421244 
C 92.619271 199.545975 91.874219 197.747259 90.548203 196.421244 
C 89.222188 195.095228 87.423472 194.350176 85.548203 194.350176 
C 83.672934 194.350176 81.874219 195.095228 80.548203 196.421244 
C 79.222188 197.747259 78.477135 199.545975 78.477135 201.421244 
C 78.477135 203.296513 79.222188 205.095228 80.548203 206.421244 
C 81.874219 207.747259 83.672934 208.492312 85.548203 208.492312 
z
" clip-path="url(#p302afb81c3)" style="fill: #b388ff; stroke: #0a1325; stroke-width: 0.8"/>
    <path d="M 194.341534 166.183468 
C 195.525859 166.183468 196.661837 165.712931 197.499281 164.875487 
C 198.336725 164.038042 198.807262 162.902065 198.807262 161.71774 
C 198.807262 160.533415 198.336725 159.397438 197.499281 158.559994 
C 196.661837 157.722549 195.525859 157.252012 194.341534 157.252012 
C 193.157209 157.252012 192.021232 157.722549 191.183788 158.559994 
C 190.346344 159.397438 189.875806 160.533415 189.875806 161.71774 
C 189.875806 162.902065 190.346344 164.038042 191.183788 164.875487 
C 192.021232 165.712931 193.157209 166.183468 194.341534 166.183468 
z
" clip-path="url(#p302afb81c3)" style="fill: #b388ff; stroke: #0a1325; stroke-width: 0.8"/>
    <path d="M 268.429414 98.986955 
C 269.669579 98.986955 270.859117 98.494233 271.736046 97.617304 
C 272.612974 96.740375 273.105697 95.550837 273.105697 94.310672 
C 273.105697 93.070508 272.612974 91.88097 271.736046 91.004041 
C 270.859117 90.127112 269.669579 89.634389 268.429414 89.634389 
C 267.189249 89.634389 265.999712 90.127112 265.122783 91.004041 
C 264.245854 91.88097 263.753131 93.070508 263.753131 94.310672 
C 263.753131 95.550837 264.245854 96.740375 265.122783 97.617304 
C 265.999712 98.494233 267.189249 98.986955 268.429414 98.986955 
z
" clip-path="url(#p302afb81c3)" style="fill: #b388ff; stroke: #0a1325; stroke-width: 0.8"/>
    <path d="M 328.707353 113.522043 
C 329.676907 113.522043 330.606881 113.136835 331.29246 112.451257 
C 331.978038 111.765678 332.363246 110.835704 332.363246 109.866149 
C 332.363246 108.896595 331.978038 107.966621 331.29246 107.281042 
C 330.606881 106.595464 329.676907 106.210256 328.707353 106.210256 
C 327.737798 106.210256 326.807824 106.595464 326.122245 107.281042 
C 325.436667 107.966621 325.051459 108.896595 325.051459 109.866149 
C 325.051459 110.835704 325.436667 111.765678 326.122245 112.451257 
C 326.807824 113.136835 327.737798 113.522043 328.707353 113.522043 
z
" clip-path="url(#p302afb81c3)" style="fill: #b388ff; stroke: #0a1325; stroke-width: 0.8"/>
    <path d="M 459.950923 21.542944 
C 461.2795 21.542944 462.553841 21.015095 463.493286 20.075649 
C 464.432732 19.136204 464.960581 17.861863 464.960581 16.533286 
C 464.960581 15.20471 464.432732 13.930369 463.493286 12.990923 
C 462.553841 12.051478 461.2795 11.523628 459.950923 11.523628 
C 458.622346 11.523628 457.348006 12.051478 456.40856 12.990923 
C 455.469114 13.930369 454.941265 15.20471 454.941265 16.533286 
C 454.941265 17.861863 455.469114 19.136204 456.40856 20.075649 
C 457.348006 21.015095 458.622346 21.542944 459.950923 21.542944 
z
" clip-path="url(#p302afb81c3)" style="fill: #b388ff; stroke: #0a1325; stroke-width: 0.8"/>
   </g>
   <g id="legend_1">
    <g id="line2d_24">
     <path d="M 80.120625 23.1225 
L 90.920625 23.1225 
L 101.720625 23.1225 
" style="fill: none; stroke-dasharray: 4.81,2.08; stroke-dashoffset: 0; stroke: #bac6da; stroke-width: 1.3"/>
    </g>
    <g id="text_13">
     <!-- calibração perfeita -->
     <g style="fill: #f5f7fb" transform="translate(111.320625 27.3225) scale(0.12 -0.12)">
      <defs>
       <path id="DejaVuSans-45" d="M 3116 1747 
Q 3116 2381 2855 2742 
Q 2594 3103 2138 3103 
Q 1681 3103 1420 2742 
Q 1159 2381 1159 1747 
Q 1159 1113 1420 752 
Q 1681 391 2138 391 
Q 2594 391 2855 752 
Q 3116 1113 3116 1747 
z
M 1159 2969 
Q 1341 3281 1617 3432 
Q 1894 3584 2278 3584 
Q 2916 3584 3314 3078 
Q 3713 2572 3713 1747 
Q 3713 922 3314 415 
Q 2916 -91 2278 -91 
Q 1894 -91 1617 61 
Q 1341 213 1159 525 
L 1159 0 
L 581 0 
L 581 4863 
L 1159 4863 
L 1159 2969 
z
" transform="scale(0.015625)"/>
       <path id="DejaVuSans-a9" d="M 3122 3366 
L 3122 2828 
Q 2878 2963 2633 3030 
Q 2388 3097 2138 3097 
Q 1578 3097 1268 2742 
Q 959 2388 959 1747 
Q 959 1106 1268 751 
Q 1578 397 2138 397 
Q 2388 397 2633 464 
Q 2878 531 3122 666 
L 3122 134 
Q 2881 22 2623 -34 
Q 2366 -91 2075 -91 
Q 1284 -91 818 406 
Q 353 903 353 1747 
Q 353 2603 823 3093 
Q 1294 3584 2113 3584 
Q 2378 3584 2631 3529 
Q 2884 3475 3122 3366 
z
M 2310 0 
Q 2481 -194 2565 -358 
Q 2650 -522 2650 -672 
Q 2650 -950 2462 -1092 
Q 2275 -1234 1906 -1234 
Q 1763 -1234 1627 -1215 
Q 1491 -1197 1356 -1159 
L 1356 -750 
Q 1463 -803 1578 -826 
Q 1694 -850 1841 -850 
Q 2025 -850 2119 -775 
Q 2213 -700 2213 -556 
Q 2213 -463 2145 -327 
Q 2078 -191 1938 0 
L 2310 0 
z
" transform="scale(0.015625)"/>
       <path id="DejaVuSans-a5" d="M 2194 1759 
Q 1497 1759 1228 1600 
Q 959 1441 959 1056 
Q 959 750 1161 570 
Q 1363 391 1709 391 
Q 2188 391 2477 730 
Q 2766 1069 2766 1631 
L 2766 1759 
L 2194 1759 
z
M 3341 1997 
L 3341 0 
L 2766 0 
L 2766 531 
Q 2569 213 2275 61 
Q 1981 -91 1556 -91 
Q 1019 -91 701 211 
Q 384 513 384 1019 
Q 384 1609 779 1909 
Q 1175 2209 1959 2209 
L 2766 2209 
L 2766 2266 
Q 2766 2663 2505 2880 
Q 2244 3097 1772 3097 
Q 1472 3097 1187 3025 
Q 903 2953 641 2809 
L 641 3341 
Q 956 3463 1253 3523 
Q 1550 3584 1831 3584 
Q 2591 3584 2966 3190 
Q 3341 2797 3341 1997 
z
M 1844 4281 
L 1665 4453 
Q 1597 4516 1545 4545 
Q 1494 4575 1453 4575 
Q 1334 4575 1278 4461 
Q 1222 4347 1215 4091 
L 825 4091 
Q 831 4513 990 4742 
Q 1150 4972 1434 4972 
Q 1553 4972 1653 4928 
Q 1753 4884 1869 4781 
L 2047 4609 
Q 2115 4547 2167 4517 
Q 2219 4488 2259 4488 
Q 2378 4488 2434 4602 
Q 2490 4716 2497 4972 
L 2887 4972 
Q 2881 4550 2721 4320 
Q 2562 4091 2278 4091 
Q 2159 4091 2059 4134 
Q 1959 4178 1844 4281 
z
" transform="scale(0.015625)"/>
       <path id="DejaVuSans-53" d="M 1159 525 
L 1159 -1331 
L 581 -1331 
L 581 3500 
L 1159 3500 
L 1159 2969 
Q 1341 3281 1617 3432 
Q 1894 3584 2278 3584 
Q 2916 3584 3314 3078 
Q 3713 2572 3713 1747 
Q 3713 922 3314 415 
Q 2916 -91 2278 -91 
Q 1894 -91 1617 61 
Q 1341 213 1159 525 
z
M 3116 1747 
Q 3116 2381 2855 2742 
Q 2594 3103 2138 3103 
Q 1681 3103 1420 2742 
Q 1159 2381 1159 1747 
Q 1159 1113 1420 752 
Q 1681 391 2138 391 
Q 2594 391 2855 752 
Q 3116 1113 3116 1747 
z
" transform="scale(0.015625)"/>
       <path id="DejaVuSans-49" d="M 2375 4863 
L 2375 4384 
L 1825 4384 
Q 1516 4384 1395 4259 
Q 1275 4134 1275 3809 
L 1275 3500 
L 2222 3500 
L 2222 3053 
L 1275 3053 
L 1275 0 
L 697 0 
L 697 3053 
L 147 3053 
L 147 3500 
L 697 3500 
L 697 3744 
Q 697 4328 969 4595 
Q 1241 4863 1831 4863 
L 2375 4863 
z
" transform="scale(0.015625)"/>
      </defs>
      <use xlink:href="#DejaVuSans-46"/>
      <use xlink:href="#DejaVuSans-44" transform="translate(54.984375 0)"/>
      <use xlink:href="#DejaVuSans-4f" transform="translate(116.265625 0)"/>
      <use xlink:href="#DejaVuSans-4c" transform="translate(144.046875 0)"/>
      <use xlink:href="#DejaVuSans-45" transform="translate(171.828125 0)"/>
      <use xlink:href="#DejaVuSans-55" transform="translate(235.3125 0)"/>
      <use xlink:href="#DejaVuSans-44" transform="translate(276.421875 0)"/>
      <use xlink:href="#DejaVuSans-a9" transform="translate(337.703125 0)"/>
      <use xlink:href="#DejaVuSans-a5" transform="translate(392.6875 0)"/>
      <use xlink:href="#DejaVuSans-52" transform="translate(453.96875 0)"/>
      <use xlink:href="#DejaVuSans-3" transform="translate(515.15625 0)"/>
      <use xlink:href="#DejaVuSans-53" transform="translate(546.9375 0)"/>
      <use xlink:href="#DejaVuSans-48" transform="translate(610.421875 0)"/>
      <use xlink:href="#DejaVuSans-55" transform="translate(671.953125 0)"/>
      <use xlink:href="#DejaVuSans-49" transform="translate(713.0625 0)"/>
      <use xlink:href="#DejaVuSans-48" transform="translate(748.265625 0)"/>
      <use xlink:href="#DejaVuSans-4c" transform="translate(809.796875 0)"/>
      <use xlink:href="#DejaVuSans-57" transform="translate(837.578125 0)"/>
      <use xlink:href="#DejaVuSans-44" transform="translate(876.78125 0)"/>
     </g>
    </g>
    <g id="line2d_25">
     <path d="M 80.120625 41.123437 
L 90.920625 41.123437 
L 101.720625 41.123437 
" style="fill: none; stroke: #ffb531; stroke-width: 2.6; stroke-linecap: square"/>
    </g>
    <g id="text_14">
     <!-- todos os horizontes -->
     <g style="fill: #f5f7fb" transform="translate(111.320625 45.323437) scale(0.12 -0.12)">
      <defs>
       <path id="DejaVuSans-4b" d="M 3513 2113 
L 3513 0 
L 2938 0 
L 2938 2094 
Q 2938 2591 2744 2837 
Q 2550 3084 2163 3084 
Q 1697 3084 1428 2787 
Q 1159 2491 1159 1978 
L 1159 0 
L 581 0 
L 581 4863 
L 1159 4863 
L 1159 2956 
Q 1366 3272 1645 3428 
Q 1925 3584 2291 3584 
Q 2894 3584 3203 3211 
Q 3513 2838 3513 2113 
z
" transform="scale(0.015625)"/>
      </defs>
      <use xlink:href="#DejaVuSans-57"/>
      <use xlink:href="#DejaVuSans-52" transform="translate(39.203125 0)"/>
      <use xlink:href="#DejaVuSans-47" transform="translate(100.390625 0)"/>
      <use xlink:href="#DejaVuSans-52" transform="translate(163.875 0)"/>
      <use xlink:href="#DejaVuSans-56" transform="translate(225.0625 0)"/>
      <use xlink:href="#DejaVuSans-3" transform="translate(277.15625 0)"/>
      <use xlink:href="#DejaVuSans-52" transform="translate(308.9375 0)"/>
      <use xlink:href="#DejaVuSans-56" transform="translate(370.125 0)"/>
      <use xlink:href="#DejaVuSans-3" transform="translate(422.21875 0)"/>
      <use xlink:href="#DejaVuSans-4b" transform="translate(454 0)"/>
      <use xlink:href="#DejaVuSans-52" transform="translate(517.375 0)"/>
      <use xlink:href="#DejaVuSans-55" transform="translate(578.5625 0)"/>
      <use xlink:href="#DejaVuSans-4c" transform="translate(619.671875 0)"/>
      <use xlink:href="#DejaVuSans-5d" transform="translate(647.453125 0)"/>
      <use xlink:href="#DejaVuSans-52" transform="translate(699.9375 0)"/>
      <use xlink:href="#DejaVuSans-51" transform="translate(761.125 0)"/>
      <use xlink:href="#DejaVuSans-57" transform="translate(824.5 0)"/>
      <use xlink:href="#DejaVuSans-48" transform="translate(863.703125 0)"/>
      <use xlink:href="#DejaVuSans-56" transform="translate(925.234375 0)"/>
     </g>
    </g>
    <g id="line2d_26">
     <path d="M 80.120625 59.604375 
L 90.920625 59.604375 
L 101.720625 59.604375 
" style="fill: none; stroke: #b388ff; stroke-width: 2; stroke-linecap: square"/>
    </g>
    <g id="text_15">
     <!-- véspera do evento -->
     <g style="fill: #f5f7fb" transform="translate(111.320625 63.804375) scale(0.12 -0.12)">
      <defs>
       <path id="DejaVuSans-ab" d="M 3597 1894 
L 3597 1613 
L 953 1613 
Q 991 1019 1311 708 
Q 1631 397 2203 397 
Q 2534 397 2845 478 
Q 3156 559 3463 722 
L 3463 178 
Q 3153 47 2828 -22 
Q 2503 -91 2169 -91 
Q 1331 -91 842 396 
Q 353 884 353 1716 
Q 353 2575 817 3079 
Q 1281 3584 2069 3584 
Q 2775 3584 3186 3129 
Q 3597 2675 3597 1894 
z
M 3022 2063 
Q 3016 2534 2758 2815 
Q 2500 3097 2075 3097 
Q 1594 3097 1305 2825 
Q 1016 2553 972 2059 
L 3022 2063 
z
M 2468 5119 
L 3090 5119 
L 2072 3944 
L 1593 3944 
L 2468 5119 
z
" transform="scale(0.015625)"/>
      </defs>
      <use xlink:href="#DejaVuSans-59"/>
      <use xlink:href="#DejaVuSans-ab" transform="translate(59.1875 0)"/>
      <use xlink:href="#DejaVuSans-56" transform="translate(120.71875 0)"/>
      <use xlink:href="#DejaVuSans-53" transform="translate(172.8125 0)"/>
      <use xlink:href="#DejaVuSans-48" transform="translate(236.296875 0)"/>
      <use xlink:href="#DejaVuSans-55" transform="translate(297.828125 0)"/>
      <use xlink:href="#DejaVuSans-44" transform="translate(338.9375 0)"/>
      <use xlink:href="#DejaVuSans-3" transform="translate(400.21875 0)"/>
      <use xlink:href="#DejaVuSans-47" transform="translate(432 0)"/>
      <use xlink:href="#DejaVuSans-52" transform="translate(495.484375 0)"/>
      <use xlink:href="#DejaVuSans-3" transform="translate(556.671875 0)"/>
      <use xlink:href="#DejaVuSans-48" transform="translate(588.453125 0)"/>
      <use xlink:href="#DejaVuSans-59" transform="translate(649.984375 0)"/>
      <use xlink:href="#DejaVuSans-48" transform="translate(709.171875 0)"/>
      <use xlink:href="#DejaVuSans-51" transform="translate(770.703125 0)"/>
      <use xlink:href="#DejaVuSans-57" transform="translate(834.078125 0)"/>
      <use xlink:href="#DejaVuSans-52" transform="translate(873.28125 0)"/>
     </g>
    </g>
   </g>
  </g>
 </g>
 <defs>
  <clipPath id="p302afb81c3">
   <rect x="69.320625" y="7.2" width="408.730601" height="201.598984"/>
  </clipPath>
 </defs>
</svg>
